<svg xmlns="http://www.w3.org/2000/svg" viewBox="0 0 32 32"><path fill="#E02F2F" d="M16-.005c-8.837 0-16 7.163-16 16 0 8.836 7.163 16 16 16s16-7.164 16-16c0-8.837-7.163-16-16-16z"/><g fill="#FFF"><path d="M17.996 19.568a.437.437 0 00-.194.045.688.688 0 00-.189.142v2.899a.794.794 0 00.217.164.51.51 0 00.221.05c.112 0 .194-.032.246-.099.052-.065.08-.17.08-.32v-2.402c0-.157-.033-.277-.097-.357-.065-.082-.161-.122-.284-.122zM21.15 19.585c-.146 0-.25.041-.314.128-.063.082-.094.222-.094.417v.47h.809v-.47c0-.195-.033-.335-.097-.417-.062-.087-.165-.128-.304-.128z"/><path d="M23.079 15.962c-.752-.75-7.082-.76-7.082-.76 0-.001-6.33.009-7.083.759-.753.752-.755 4.462-.755 4.483 0 .028.002 3.732.755 4.484.753.75 7.083.766 7.083.766s6.331-.016 7.082-.766c.756-.754.763-4.484.763-4.484 0-.02-.009-3.73-.763-4.482zm-10.092 2.187h-1.066v5.39H10.89v-5.39H9.823v-.916h3.163v.916zM16 23.538h-.913v-.511c-.17.189-.345.333-.529.431-.183.1-.36.148-.531.148-.212 0-.369-.068-.478-.208-.105-.139-.16-.345-.16-.623v-3.89h.914v3.568c0 .111.019.19.056.24.04.05.103.074.188.074a.504.504 0 0 0 .256-.099 1.27 1.27 0 0 0 .284-.249v-3.534H16v4.653zm3.319-.961c0 .329-.072.581-.215.757-.142.176-.351.263-.622.263a1.06 1.06 0 0 1-.478-.101 1.172 1.172 0 0 1-.391-.315v.357h-.924v-6.306h.924v2.031c.124-.142.254-.251.392-.323a.893.893 0 0 1 .422-.111c.29 0 .511.099.663.296.154.199.229.489.229.87v2.582zm3.172-1.252h-1.749v.875c0 .245.03.415.089.51.062.095.164.141.31.141.151 0 .257-.04.318-.12.06-.08.092-.256.092-.531v-.212h.941v.239c0 .477-.114.836-.344 1.079-.228.241-.571.36-1.026.36-.409 0-.733-.127-.968-.383-.235-.255-.354-.606-.354-1.055v-2.089c0-.402.131-.733.389-.986.258-.254.591-.381 1.001-.381.419 0 .741.118.966.353.225.235.336.573.336 1.014v1.186z"/></g><path fill="#FFF" d="M21.146 13.251h-1.03v-.566a2.168 2.168 0 01-.592.476 1.27 1.27 0 01-.597.164c-.24 0-.418-.077-.538-.229-.12-.153-.181-.381-.181-.687V8.126h1.028v3.929c0 .121.024.209.067.263.042.055.113.082.209.082a.588.588 0 00.287-.108c.115-.072.222-.164.317-.276v-3.89h1.03v5.125zM16.965 8.369c-.273-.248-.623-.373-1.049-.373-.467 0-.841.118-1.117.353-.278.235-.417.551-.416.949v2.656c0 .436.136.782.405 1.04.271.257.632.386 1.082.386.469 0 .835-.125 1.104-.374.266-.25.399-.593.399-1.031V9.327a1.245 1.245 0 00-.408-.958zm-.642 3.683a.432.432 0 01-.123.324.464.464 0 01-.332.117c-.137 0-.242-.038-.314-.115a.458.458 0 01-.111-.326V9.26c0-.112.04-.203.118-.272a.449.449 0 01.307-.103c.135 0 .245.034.329.103.084.069.126.16.126.272v2.792zM11.578 6.305H10.41l1.38 4.194v2.752h1.16v-2.882l1.349-4.064H13.12l-.716 2.776h-.073z"/></svg>